# This file uses centimeters as units for non-parametric coordinates.

mtllib iceberg.mtl
g default
v 4.521954 12.753592 4.521954
v -4.521954 9.431915 4.521954
v 6.783287 -0.048221 17.220310
v -6.963285 -0.048221 4.508629
v 8.753788 -0.048221 -5.820483
v -6.963285 -0.048221 -5.820483
v 4.521954 9.431915 -4.521954
v -3.510325 8.640167 -4.521954
v -0.166126 4.909962 7.827929
v 0.000000 17.739716 4.521954
v -5.705072 4.909962 4.785992
v -0.255694 -0.048221 16.642673
v 8.697485 4.909962 8.428166
v -6.963285 -0.048221 -0.245505
v -0.255694 -0.048221 -5.820483
v 8.753788 -0.048221 3.259527
v -0.166126 4.909962 -5.094313
v -5.106279 4.909962 -5.094313
v 0.000000 11.767611 -4.521954
v 8.697485 4.909962 -5.094313
v 0.000000 11.166390 0.000000
v -2.819286 9.431915 0.000000
v 5.963605 12.507917 0.000000
v -4.275018 4.909962 -0.154161
v 8.697485 4.909962 3.488013
v 2.260977 7.170939 7.306382
v 8.113278 7.170939 7.855807
v 2.260977 14.499231 4.521954
v 0.000000 7.170939 7.306382
v 2.303950 4.909962 7.827929
v 8.753788 -0.048221 5.636595
v 2.121375 -0.048221 16.642673
v 1.897120 2.648985 -5.598701
v 9.242232 2.648985 -5.598701
v 2.121375 -0.048221 -5.820483
v -0.940588 2.648985 -4.984911
v 4.261151 3.581386 -5.094313
v 2.260977 11.767611 -2.260977
v 5.963605 13.839808 -2.260977
v 2.260977 10.237228 -4.521954
v 0.000000 13.502085 -2.260977
v 2.260977 10.488871 0.000000
v -4.521954 7.170939 2.260977
v -4.521954 9.031042 4.521954
v -3.700517 9.431915 2.260977
v -4.521954 7.170939 0.000000
v -5.106279 4.909962 2.315916
v 9.554930 7.911246 -2.260977
v 8.113278 7.170939 -4.521954
v 9.554930 7.911246 3.333853
v 8.697485 4.909962 -2.624237
v -2.260977 9.031042 7.306382
v -2.260977 16.226326 4.521954
v -2.636203 4.909962 7.827929
v -1.936064 3.416942 9.020336
v -6.616005 2.648985 5.018674
v -0.918113 3.450802 9.689829
v 1.865032 4.901561 10.405936
v 6.939363 3.450802 10.334846
v -6.963285 -0.048221 2.131563
v -6.963285 -0.048221 -2.622578
v -2.632759 -0.048221 -5.820483
v 8.753788 -0.048221 -2.622578
v -3.778296 1.514694 -5.796975
v -6.616005 2.648985 -5.198452
v -3.739845 4.909962 -5.094313
v -2.260977 7.170939 -4.521954
v -4.521954 7.170939 -4.521954
v -2.260977 8.542210 -4.521954
v 0.000000 7.170939 -4.521954
v 2.260977 7.170939 -4.521954
v -2.260977 11.166390 -2.260977
v -4.521954 9.431915 -2.260977
v -2.260977 10.381531 0.000000
v -2.260977 17.739716 2.260977
v 0.000000 18.621906 2.260977
v 2.260977 14.499231 2.260977
v 4.521954 14.499231 2.260977
v -4.521954 7.170939 -2.260977
v -5.106279 4.909962 -2.624237
v -5.443017 2.648985 -2.944358
v -6.616005 2.648985 -0.290014
v -7.750081 2.648985 2.364330
v 8.113278 7.170939 5.594830
v 9.564422 2.648985 3.623867
v 8.149874 2.648985 -2.944358
v -5.104863 4.909962 7.827929
v -2.634788 4.909962 7.827929
v -6.482810 3.450802 8.556826
v -3.699665 2.288689 9.689830
v -4.520658 7.628136 7.306382
v -2.259681 9.031042 7.306382
v -6.961935 -0.048221 16.642673
v -2.631401 -0.048221 16.642673
v -0.254326 -0.048221 16.642673
v -0.290010 3.450802 9.689829
v 8.698898 4.909962 8.428166
v 8.698898 4.909962 5.958089
v 7.072557 2.648985 8.932554
v 9.243857 2.648985 6.278211
v 8.114574 7.170939 7.855807
v 8.114574 7.170939 5.594830
v 8.698898 4.909962 3.488013
v 6.938745 6.725989 4.092920
v 7.254659 0.388009 8.167318
v 8.789287 1.863472 6.956410
v 7.874794 0.388009 3.819631
v 9.243857 2.648985 3.623867
v 7.891487 -0.048221 11.047835
v 1.168480 2.982581 11.047835
v 6.946287 2.409467 11.047835
v 3.584356 2.154832 11.047835
v -6.962719 -0.048221 11.047835
v -5.436164 2.084497 11.047836
v -2.887448 2.584489 11.047835
v -0.297782 2.265205 11.047835
v 7.036053 0.287732 11.047836
v 7.417334 -0.048221 14.023312
v 0.915833 0.646365 14.023313
v 2.242282 1.431115 14.023313
v -2.803476 0.742779 14.023313
v -0.283531 1.341590 14.023313
v 6.615684 1.481968 14.023313
v -6.962462 -0.048221 14.023312
v -5.295902 1.220146 14.023314
vt 0.556106 0.435765
vt 0.812924 0.417647
vt 0.789457 0.434924
vt 0.554380 0.451508
vt 0.634724 0.825827
vt 0.812924 0.825827
vt 0.834805 0.841052
vt 0.539765 0.841052
vt 0.554380 0.672054
vt 0.703108 0.672054
vt 0.703108 0.740302
vt 0.554380 0.740302
vt 0.258450 0.602147
vt 0.234398 0.527587
vt 0.281921 0.535557
vt 0.281921 0.603805
vt 0.812924 0.751267
vt 0.789457 0.808550
vt 0.847366 0.740302
vt 0.463561 0.451508
vt 0.463561 0.535557
vt 0.372741 0.535557
vt 0.372741 0.451508
vt 0.357726 0.435765
vt 0.258507 0.435765
vt 0.203157 0.413763
vt 0.314951 0.379563
vt 0.426682 0.379563
vt 0.510496 0.338571
vt 0.607538 0.338571
vt 0.538476 0.357947
vt 0.425779 0.822525
vt 0.453290 0.847747
vt 0.357807 0.847747
vt 0.311793 0.847037
vt 0.313337 0.825827
vt 0.258450 0.825827
vt 0.281921 0.808550
vt 0.372741 0.808550
vt 0.463561 0.808550
vt 0.463561 0.808550
vt 0.554380 0.808550
vt 0.554380 0.808550
vt 0.463561 0.740302
vt 0.372741 0.808550
vt 0.372741 0.740302
vt 0.372741 0.672054
vt 0.350315 0.672054
vt 0.314917 0.603805
vt 0.372741 0.603805
vt 0.463561 0.603805
vt 0.554380 0.535557
vt 0.554380 0.603805
vt 0.281921 0.672054
vt 0.281921 0.740302
vt 0.281921 0.740302
vt 0.258450 0.751267
vt 0.197807 0.828971
vt 0.244924 0.760930
vt 0.197807 0.680808
vt 0.183857 0.679464
vt 0.183857 0.607712
vt 0.152253 0.600686
vt 0.847366 0.571420
vt 0.645200 0.603805
vt 0.789457 0.503172
vt 0.812980 0.492207
vt 0.812980 0.417647
vt 0.747653 0.402422
vt 0.834871 0.482544
vt 0.847747 0.562666
vt 0.815185 0.573664
vt 0.815185 0.751217
vt 0.790927 0.760930
vt 0.645200 0.535557
vt 0.456888 0.435765
vt 0.815185 0.847747
vt 0.548773 0.847747
vt 0.456888 0.825827
vt 0.645200 0.808550
vt 0.463561 0.672054
vt 0.281921 0.535557
vt 0.291840 0.676707
vt 0.812924 0.566767
vt 0.281973 0.451508
vt 0.372793 0.451508
vt 0.357669 0.435765
vt 0.245199 0.338571
vt 0.347577 0.338571
vt 0.357862 0.169689
vt 0.453345 0.169689
vt 0.452172 0.248755
vt 0.350950 0.248755
vt 0.385792 0.399772
vt 0.548773 0.169689
vt 0.736034 0.152253
vt 0.729301 0.248755
vt 0.553629 0.248755
vt 0.742303 0.360093
vt 0.183857 0.847747
vt 0.322557 0.808550
vt 0.183857 0.751217
vt 0.183857 0.535959
vt 0.197807 0.520563
vt 0.789509 0.434924
vt 0.789509 0.503172
vt 0.812980 0.566767
vt 0.742278 0.548508
vt 0.754968 0.425521
vt 0.816611 0.462072
vt 0.779878 0.556757
vt 0.834871 0.562666
vt 0.183880 0.338571
vt 0.453290 0.169689
vt 0.500348 0.248755
vt 0.451599 0.338571
vt 0.451911 0.379563
vt 0.742581 0.338571
vt 0.746187 0.338571
vt 0.761502 0.248755
vt 0.780548 0.338571
vt 0.815185 0.501911
vt 0.250833 0.248755
vt 0.183890 0.248755
vt 0.183912 0.169689
vn -0.091135 0.222191 0.970735
vn -0.091135 0.222190 0.970735
vn -0.091135 0.222191 0.970735
vn -0.091135 0.222191 0.970735
vn -0.036046 0.319642 -0.946853
vn -0.036046 0.319642 -0.946852
vn -0.036046 0.319642 -0.946852
vn -0.036046 0.319642 -0.946852
vn -0.431606 0.781218 0.451015
vn -0.431606 0.781218 0.451015
vn -0.431606 0.781218 0.451015
vn -0.431606 0.781218 0.451015
vn -0.943330 0.250358 -0.217827
vn -0.943330 0.250358 -0.217827
vn -0.943330 0.250358 -0.217827
vn -0.943330 0.250358 -0.217827
vn 0.956475 0.002218 -0.291805
vn 0.956475 0.002218 -0.291805
vn 0.956475 0.002218 -0.291805
vn 0.956475 0.002218 -0.291805
vn 0.022930 0.299057 0.953960
vn 0.022930 0.299057 0.953960
vn 0.022930 0.299057 0.953960
vn 0.022930 0.299057 0.953960
vn -0.054978 0.558454 0.827711
vn -0.054978 0.558454 0.827711
vn -0.054978 0.558454 0.827711
vn -0.054978 0.558454 0.827711
vn -0.169984 0.367547 0.914338
vn -0.104227 0.615603 0.781133
vn -0.050005 0.766110 0.640761
vn -0.169984 0.367547 0.914338
vn 0.098860 0.237353 -0.966380
vn 0.098860 0.237353 -0.966380
vn 0.098860 0.237353 -0.966380
vn 0.098860 0.237353 -0.966380
vn 0.000000 0.245406 -0.969420
vn 0.000000 0.245406 -0.969420
vn 0.000000 0.245406 -0.969420
vn 0.000000 0.245406 -0.969420
vn 0.000000 0.000000 -1.000000
vn 0.000000 0.000000 -1.000000
vn 0.000000 0.000000 -1.000000
vn 0.000000 0.000000 -1.000000
vn -0.662920 0.539047 -0.519581
vn -0.662920 0.539047 -0.519581
vn -0.662920 0.539047 -0.519581
vn -0.662920 0.539047 -0.519581
vn -0.862344 0.186103 -0.470881
vn -0.862344 0.186103 -0.470881
vn -0.862344 0.186103 -0.470881
vn -0.862344 0.186103 -0.470881
vn 0.847728 0.520617 0.101568
vn 0.847728 0.520617 0.101568
vn 0.847728 0.520617 0.101568
vn 0.847728 0.520617 0.101568
vn -0.882658 0.332351 0.332351
vn -0.882658 0.332351 0.332351
vn -0.882658 0.332351 0.332351
vn -0.882658 0.332351 0.332351
vn -0.909127 0.350048 0.225732
vn -0.909127 0.350048 0.225732
vn -0.909127 0.350048 0.225732
vn -0.909127 0.350048 0.225732
vn -0.973021 -0.071624 -0.219318
vn -0.973021 -0.071624 -0.219318
vn -0.973021 -0.071624 -0.219318
vn -0.973021 -0.071624 -0.219318
vn 0.734040 0.609540 0.299411
vn 0.734040 0.609540 0.299411
vn 0.734040 0.609540 0.299411
vn 0.734040 0.609540 0.299411
vn 0.910695 -0.147425 0.385876
vn 0.910695 -0.147425 0.385876
vn 0.910695 -0.147425 0.385876
vn 0.910695 -0.147425 0.385876
vn 0.992921 -0.037160 -0.112811
vn 0.992921 -0.037160 -0.112811
vn 0.992921 -0.037160 -0.112811
vn 0.992921 -0.037160 -0.112811
vn 0.032765 0.435431 0.899625
vn 0.032765 0.435431 0.899626
vn 0.032765 0.435431 0.899625
vn 0.032765 0.435431 0.899625
vn 0.208244 0.290596 0.933910
vn 0.208244 0.290596 0.933910
vn 0.208244 0.290596 0.933910
vn 0.208244 0.290596 0.933910
vn 0.000000 0.224771 0.974412
vn 0.000000 0.224771 0.974412
vn 0.000000 0.224771 0.974412
vn 0.000000 0.224771 0.974412
vn 0.000000 0.081950 -0.996636
vn 0.000000 0.081950 -0.996636
vn 0.000000 0.081950 -0.996637
vn 0.000000 0.081950 -0.996636
vn -0.115146 0.172346 -0.978283
vn -0.115146 0.172346 -0.978283
vn -0.115146 0.172346 -0.978283
vn -0.115146 0.172346 -0.978283
vn -0.051585 0.172369 -0.983681
vn -0.051585 0.172369 -0.983681
vn -0.051585 0.172369 -0.983681
vn -0.051585 0.172369 -0.983681
vn -0.131840 0.620609 -0.772957
vn -0.131840 0.620609 -0.772957
vn -0.131840 0.620609 -0.772958
vn -0.131840 0.620609 -0.772957
vn 0.505184 0.699699 -0.505184
vn 0.505184 0.699699 -0.505184
vn 0.505184 0.699699 -0.505184
vn 0.505184 0.699699 -0.505184
vn 0.384605 0.721049 0.576340
vn 0.384605 0.721049 0.576340
vn 0.384605 0.721049 0.576340
vn 0.384605 0.721049 0.576340
vn -0.916520 0.282835 -0.282835
vn -0.916520 0.282835 -0.282835
vn -0.916520 0.282835 -0.282835
vn -0.916520 0.282835 -0.282835
vn -0.860806 0.480492 -0.167752
vn -0.860806 0.480492 -0.167752
vn -0.860806 0.480492 -0.167752
vn -0.860806 0.480492 -0.167752
vn -0.981984 0.077053 -0.172538
vn -0.981985 0.077053 -0.172538
vn -0.981985 0.077053 -0.172538
vn -0.981985 0.077053 -0.172538
vn 0.474250 0.415942 -0.775938
vn 0.474250 0.415942 -0.775938
vn 0.474250 0.415942 -0.775938
vn 0.474250 0.415942 -0.775938
vn 0.807133 0.582063 0.098684
vn 0.807133 0.582063 0.098684
vn 0.807133 0.582063 0.098684
vn 0.807133 0.582063 0.098684
vn 0.961529 -0.274702 0.000000
vn 0.961529 -0.274702 0.000000
vn 0.961529 -0.274702 0.000000
vn 0.961529 -0.274702 0.000000
vn -0.738492 0.232057 0.633071
vn -0.738492 0.232057 0.633071
vn -0.738493 0.232057 0.633071
vn -0.738492 0.232057 0.633071
vn -0.046552 0.156987 0.986503
vn -0.046552 0.156987 0.986503
vn -0.046552 0.156987 0.986503
vn -0.046552 0.156987 0.986503
vn 0.061307 0.155931 0.985864
vn 0.061307 0.155931 0.985864
vn 0.061307 0.155931 0.985864
vn 0.061307 0.155931 0.985864
vn 0.070298 0.969296 0.235635
vn 0.025782 0.938463 0.344417
vn 0.016879 0.930676 0.365456
vn 0.070298 0.969296 0.235635
vn -0.111992 0.915860 0.385563
vn -0.111992 0.915860 0.385563
vn -0.076369 0.910503 0.406389
vn -0.079051 0.910960 0.404849
vn -0.138794 0.713243 0.687038
vn -0.138794 0.713243 0.687038
vn -0.138794 0.713243 0.687038
vn -0.138794 0.713243 0.687038
vn -0.034371 0.887514 0.459497
vn -0.034371 0.887514 0.459497
vn -0.036300 0.928572 0.369374
vn -0.035942 0.921074 0.387726
vn 0.101295 0.929787 0.353886
vn 0.101295 0.929787 0.353886
vn 0.101295 0.929787 0.353886
vn 0.101295 0.929787 0.353886
vn -0.288070 0.929580 0.229994
vn -0.288070 0.929580 0.229994
vn -0.288070 0.929580 0.229994
vn -0.288070 0.929580 0.229994
vn -0.060633 0.138429 -0.988515
vn -0.060633 0.138429 -0.988515
vn -0.060633 0.138429 -0.988515
vn -0.060633 0.138429 -0.988515
vn -0.094952 0.165996 -0.981545
vn -0.094952 0.165996 -0.981544
vn -0.094952 0.165996 -0.981545
vn -0.094952 0.165996 -0.981545
vn 0.109819 0.088058 -0.990043
vn 0.109819 0.088058 -0.990043
vn 0.109819 0.088058 -0.990043
vn 0.109819 0.088058 -0.990043
vn 0.000000 0.000000 -1.000000
vn 0.000000 0.000000 -1.000000
vn 0.000000 0.000000 -1.000000
vn 0.000000 0.000000 -1.000000
vn -0.000000 0.000000 -1.000000
vn -0.000000 0.000000 -1.000000
vn -0.000000 0.000000 -1.000000
vn -0.000000 0.000000 -1.000000
vn 0.000000 0.245406 -0.969420
vn 0.000000 0.245406 -0.969420
vn 0.000000 0.245406 -0.969420
vn 0.000000 0.245406 -0.969420
vn 0.000000 0.000000 -1.000000
vn 0.000000 0.000000 -1.000000
vn 0.000000 0.000000 -1.000000
vn 0.000000 0.000000 -1.000000
vn -0.023497 0.181960 -0.983025
vn -0.023497 0.181960 -0.983025
vn -0.023497 0.181960 -0.983025
vn -0.023497 0.181960 -0.983025
vn 0.040541 0.204087 -0.978113
vn 0.040541 0.204087 -0.978113
vn 0.040541 0.204087 -0.978113
vn 0.040541 0.204087 -0.978113
vn -0.333304 0.714936 -0.614634
vn -0.333304 0.714936 -0.614634
vn -0.333304 0.714936 -0.614634
vn -0.333304 0.714936 -0.614634
vn -0.643412 0.675820 0.359566
vn -0.643412 0.675820 0.359566
vn -0.643412 0.675820 0.359566
vn -0.643412 0.675820 0.359566
vn -0.493874 0.715666 0.493874
vn -0.493874 0.715666 0.493874
vn -0.493874 0.715666 0.493874
vn -0.493874 0.715666 0.493874
vn -0.966750 0.236884 -0.096336
vn -0.966750 0.236884 -0.096336
vn -0.966750 0.236884 -0.096336
vn -0.966750 0.236884 -0.096336
vn -0.423975 0.800306 0.423975
vn -0.423975 0.800306 0.423975
vn -0.423975 0.800306 0.423975
vn -0.423975 0.800306 0.423975
vn -0.107013 0.290279 -0.950940
vn -0.107013 0.290279 -0.950940
vn -0.107013 0.290279 -0.950940
vn -0.107013 0.290279 -0.950940
vn 0.338831 0.877717 0.338831
vn 0.338831 0.877717 0.338831
vn 0.338831 0.877717 0.338831
vn 0.338831 0.877717 0.338831
vn -0.190025 0.561273 -0.805520
vn -0.190025 0.561273 -0.805521
vn -0.190025 0.561273 -0.805521
vn -0.190025 0.561273 -0.805520
vn 0.362906 0.341870 -0.866847
vn 0.362906 0.341870 -0.866847
vn 0.362906 0.341870 -0.866847
vn 0.362906 0.341870 -0.866847
vn -0.933684 0.253214 -0.253214
vn -0.933684 0.253214 -0.253214
vn -0.933684 0.253214 -0.253214
vn -0.933684 0.253214 -0.253214
vn -0.968190 0.250218 0.000000
vn -0.968189 0.250218 0.000000
vn -0.968189 0.250218 0.000000
vn -0.968189 0.250218 0.000000
vn -0.983496 0.053607 0.172803
vn -0.983496 0.053607 0.172803
vn -0.983496 0.053607 0.172803
vn -0.983496 0.053607 0.172803
vn -0.929280 0.310589 0.199933
vn -0.929280 0.310589 0.199933
vn -0.929280 0.310589 0.199933
vn -0.929280 0.310589 0.199933
vn -0.927081 0.306280 -0.216133
vn -0.927081 0.306280 -0.216133
vn -0.927081 0.306281 -0.216133
vn -0.927081 0.306280 -0.216133
vn -0.856514 0.512954 -0.057118
vn -0.856514 0.512954 -0.057118
vn -0.856514 0.512954 -0.057118
vn -0.856514 0.512954 -0.057118
vn -0.969703 -0.109105 0.218570
vn -0.969703 -0.109105 0.218570
vn -0.969703 -0.109105 0.218570
vn -0.969703 -0.109105 0.218570
vn -0.781077 0.619081 0.081589
vn -0.781077 0.619081 0.081589
vn -0.781077 0.619081 0.081589
vn -0.781077 0.619081 0.081589
vn -0.648384 0.719556 -0.248671
vn -0.648384 0.719556 -0.248671
vn -0.648384 0.719556 -0.248671
vn -0.648384 0.719556 -0.248671
vn 0.801986 0.557261 0.215123
vn 0.801986 0.557261 0.215123
vn 0.801986 0.557261 0.215123
vn 0.801986 0.557261 0.215123
vn 0.968190 0.250218 0.000000
vn 0.968190 0.250218 0.000000
vn 0.968190 0.250218 0.000000
vn 0.968190 0.250218 0.000000
vn 0.819908 0.489121 -0.297510
vn 0.819908 0.489121 -0.297510
vn 0.819908 0.489121 -0.297510
vn 0.819908 0.489121 -0.297510
vn 0.735221 -0.084968 0.672481
vn 0.735221 -0.084968 0.672481
vn 0.735221 -0.084968 0.672481
vn 0.735221 -0.084968 0.672481
vn 0.857468 -0.514520 -0.004316
vn 0.857468 -0.514520 -0.004316
vn 0.857468 -0.514520 -0.004316
vn 0.857468 -0.514520 -0.004316
vn 0.972160 0.234318 0.000000
vn 0.972160 0.234318 0.000000
vn 0.972160 0.234318 0.000000
vn 0.972160 0.234318 0.000000
vn 0.982729 0.024436 0.183432
vn 0.982729 0.024436 0.183432
vn 0.982729 0.024436 0.183432
vn 0.982729 0.024436 0.183432
vn 0.977297 -0.038605 0.208328
vn 0.977297 -0.038605 0.208328
vn 0.977297 -0.038605 0.208328
vn 0.977297 -0.038605 0.208328
vn 0.991074 0.074491 -0.110558
vn 0.991074 0.074491 -0.110558
vn 0.991074 0.074491 -0.110558
vn 0.991074 0.074491 -0.110558
vn -0.847841 0.529401 0.029989
vn -0.847842 0.529401 0.029989
vn -0.847841 0.529401 0.029989
vn -0.847841 0.529401 0.029989
vn -0.080584 0.598727 0.796889
vn -0.080584 0.598727 0.796889
vn -0.080584 0.598727 0.796889
vn -0.080584 0.598727 0.796889
vn -0.950780 0.264274 0.161790
vn -0.950780 0.264274 0.161790
vn -0.950780 0.264274 0.161790
vn -0.950780 0.264274 0.161790
vn 0.000000 -0.125549 -0.992087
vn 0.000000 -0.125549 -0.992087
vn 0.000000 -0.125549 -0.992087
vn 0.000000 -0.125549 -0.992087
vn -0.484814 0.780897 0.393898
vn -0.484814 0.780897 0.393898
vn -0.484814 0.780897 0.393898
vn -0.484814 0.780897 0.393898
vn -0.970818 0.210745 0.114454
vn -0.970818 0.210745 0.114454
vn -0.912375 0.394800 0.108190
vn -0.923811 0.366874 0.109442
vn -0.970818 0.210745 0.114454
vn 0.138124 0.871135 0.471217
vn 0.138124 0.871135 0.471217
vn 0.078446 0.859047 0.505850
vn 0.073690 0.857907 0.508494
vn 0.138124 0.871135 0.471217
vn 0.138124 0.871135 0.471217
vn -0.286376 0.685452 0.669436
vn -0.286376 0.685452 0.669436
vn -0.286376 0.685452 0.669436
vn -0.286376 0.685452 0.669436
vn 0.794419 -0.491261 0.357156
vn 0.794419 -0.491261 0.357156
vn 0.794419 -0.491261 0.357156
vn 0.794419 -0.491261 0.357156
vn 0.000000 0.245389 0.969425
vn 0.000000 0.245389 0.969425
vn 0.000000 0.245389 0.969425
vn 0.000000 0.245389 0.969425
vn 0.000000 1.000000 0.000000
vn 0.000000 1.000000 0.000000
vn 0.000000 1.000000 0.000000
vn 0.000000 1.000000 0.000000
vn 0.293014 -0.034496 0.955486
vn 0.293014 -0.034496 0.955486
vn 0.293014 -0.034496 0.955486
vn 0.293014 -0.034496 0.955486
vn 0.401976 -0.914621 -0.043393
vn 0.401976 -0.914621 -0.043393
vn 0.401976 -0.914621 -0.043393
vn 0.401976 -0.914621 -0.043393
vn 0.996241 0.049534 0.071061
vn 0.993702 0.083011 0.075273
vn 0.991996 0.099795 0.077357
vn 0.996241 0.049534 0.071061
vn 0.996241 0.049534 0.071061
vn 0.343843 0.936996 0.061733
vn 0.343843 0.936996 0.061733
vn 0.625156 0.739320 0.250172
vn 0.605537 0.760006 0.236043
vn 0.815595 0.510739 -0.271939
vn 0.815595 0.510739 -0.271939
vn 0.815595 0.510739 -0.271939
vn 0.815595 0.510739 -0.271939
vn 0.358336 -0.188617 0.914341
vn 0.358336 -0.188617 0.914341
vn 0.358336 -0.188617 0.914341
vn 0.358336 -0.188617 0.914341
vn 0.000000 0.059977 0.998200
vn 0.000000 0.059977 0.998200
vn 0.000000 0.059977 0.998200
vn 0.000000 0.059977 0.998200
vn -0.112093 0.914689 0.388304
vn -0.061096 0.905879 0.419106
vn 0.036093 0.917977 0.394987
vn 0.035604 0.917895 0.395224
vn -0.083855 0.917304 0.389258
vn -0.076096 0.914807 0.396659
vn -0.130661 0.930057 0.343397
vn -0.130661 0.930057 0.343397
vn 0.001578 0.803774 0.594932
vn 0.004194 0.789072 0.614287
vn 0.058870 0.359873 0.931142
vn 0.058870 0.359872 0.931142
vn -0.693604 0.715492 0.083571
vn -0.693604 0.715492 0.083571
vn -0.693604 0.715492 0.083571
vn -0.469008 0.547974 0.692644
vn -0.469008 0.547974 0.692644
vn 0.986463 0.141728 0.082482
vn 0.986463 0.141728 0.082482
vn 0.726030 0.605042 0.326811
vn 0.726030 0.605042 0.326811
vn 0.726030 0.605042 0.326811
vn -0.195358 0.921964 0.334393
vn -0.195358 0.921964 0.334393
vn 0.064531 0.922331 0.380975
vn 0.064531 0.922331 0.380975
s off
g pCube1
usemtl aiStandardSurface1SG
f 30/1/1 13/2/2 27/3/3 26/4/4
f 37/5/5 20/6/6 34/7/7 33/8/8
f 42/9/9 23/10/10 39/11/11 38/12/12
f 47/13/13 11/14/14 44/15/15 43/16/16
f 51/17/17 20/6/18 49/18/19 48/19/20
f 29/20/21 10/21/22 53/22/23 52/23/24
f 88/24/25 87/25/26 89/26/27 90/27/28
s 1
f 57/28/29 110/29/30 112/30/31 58/31/32
s off
f 36/32/33 15/33/34 62/34/35 64/35/36
f 66/36/37 18/37/38 68/38/39 67/39/40
f 70/40/41 19/41/42 40/42/43 71/43/44
f 41/44/45 19/41/46 69/45/47 72/46/48
f 74/47/49 22/48/50 45/49/51 75/50/52
f 76/51/53 10/21/54 28/52/55 77/53/56
f 46/54/57 22/48/58 73/55/59 79/56/60
f 80/57/61 18/37/62 65/58/63 81/59/64
f 82/60/65 14/61/66 60/62/67 83/63/68
f 50/64/69 23/10/70 78/65/71 84/66/72
f 98/67/73 97/68/74 99/69/75 100/70/76
f 85/71/77 16/72/78 63/73/79 86/74/80
f 27/3/81 1/75/82 28/52/83 26/4/84
f 28/52/85 10/21/86 29/20/87 26/4/88
f 29/20/89 9/76/90 30/1/91 26/4/92
f 34/7/93 5/77/94 35/78/95 33/8/96
f 35/78/97 15/33/98 36/32/99 33/8/100
f 36/32/101 17/79/102 37/5/103 33/8/104
f 39/11/105 7/80/106 40/42/107 38/12/108
f 40/42/109 19/41/110 41/44/111 38/12/112
f 41/44/113 21/81/114 42/9/115 38/12/116
f 44/15/117 2/82/118 45/49/119 43/16/120
f 45/49/121 22/48/122 46/54/123 43/16/124
f 46/54/125 24/83/126 47/13/127 43/16/128
f 49/18/129 7/80/130 39/11/131 48/19/132
f 39/11/133 23/10/134 50/64/135 48/19/136
f 50/64/137 25/84/138 51/17/139 48/19/140
f 53/22/141 2/82/142 44/15/143 52/23/144
f 91/85/145 87/25/146 88/24/147 92/86/148
f 54/87/149 9/76/150 29/20/151 52/23/152
s 2
f 89/26/153 114/88/154 115/89/155 90/27/156
s 3
f 94/90/157 95/91/158 122/92/159 121/93/160
s off
f 57/28/161 9/76/162 54/87/163 55/94/164
s 4
f 32/95/165 3/96/166 123/97/167 120/98/168
s off
f 59/99/169 13/2/170 30/1/171 58/31/172
f 30/1/173 9/76/174 57/28/175 58/31/176
f 62/34/177 6/100/178 65/58/179 64/35/180
f 65/58/181 18/37/182 66/36/183 64/35/184
f 66/36/185 17/79/186 36/32/187 64/35/188
f 68/38/189 8/101/190 69/45/191 67/39/192
f 69/45/193 19/41/194 70/40/195 67/39/196
f 70/40/197 17/79/198 66/36/199 67/39/200
f 40/42/201 7/80/202 49/18/203 71/43/204
f 49/18/205 20/6/206 37/5/207 71/43/208
f 37/5/209 17/79/210 70/40/211 71/43/212
f 69/45/213 8/101/214 73/55/215 72/46/216
f 73/55/217 22/48/218 74/47/219 72/46/220
f 74/47/221 21/81/222 41/44/223 72/46/224
f 45/49/225 2/82/226 53/22/227 75/50/228
f 53/22/229 10/21/230 76/51/231 75/50/232
f 76/51/233 21/81/234 74/47/235 75/50/236
f 28/52/237 1/75/238 78/65/239 77/53/240
f 78/65/241 23/10/242 42/9/243 77/53/244
f 42/9/245 21/81/246 76/51/247 77/53/248
f 73/55/249 8/101/250 68/38/251 79/56/252
f 68/38/253 18/37/254 80/57/255 79/56/256
f 80/57/257 24/83/258 46/54/259 79/56/260
f 65/58/261 6/100/262 61/102/263 81/59/264
f 61/102/265 14/61/266 82/60/267 81/59/268
f 82/60/269 24/83/270 80/57/271 81/59/272
f 60/62/273 4/103/274 56/104/275 83/63/276
f 56/104/277 11/14/278 47/13/279 83/63/280
f 47/13/281 24/83/282 82/60/283 83/63/284
f 78/65/285 1/75/286 27/3/287 84/66/288
f 101/105/289 97/68/290 98/67/291 102/106/292
f 98/67/293 103/107/294 104/108/295 102/106/296
f 99/69/297 105/109/298 106/110/299 100/70/300
f 106/110/301 107/111/302 108/112/303 100/70/304
f 108/112/305 103/107/306 98/67/307 100/70/308
f 63/73/309 5/77/310 34/7/311 86/74/312
f 34/7/313 20/6/314 51/17/315 86/74/316
f 51/17/317 25/84/318 85/71/319 86/74/320
f 11/14/321 56/104/322 89/26/323 87/25/324
f 55/94/325 54/87/326 88/24/327 90/27/328
f 44/15/329 11/14/330 87/25/331 91/85/332
f 54/87/333 52/23/334 92/86/335 88/24/336
f 52/23/337 44/15/338 91/85/339 92/86/340
s 5
f 56/104/341 4/103/342 113/113/343 114/88/344 89/26/345
s 6
f 12/114/346 119/115/347 110/29/348 116/116/349 122/92/350 95/91/351
s off
f 57/28/352 55/94/353 90/27/354 96/117/355
f 13/2/356 59/99/357 99/69/358 97/68/359
f 27/3/360 13/2/361 97/68/362 101/105/363
f 84/66/364 27/3/365 101/105/366 102/106/367
f 25/84/368 50/64/369 104/108/370 103/107/371
f 50/64/372 84/66/373 102/106/374 104/108/375
s 7
f 59/99/376 111/118/377 117/119/378 105/109/379 99/69/380
s 8
f 3/96/381 118/120/382 109/121/383 117/119/384
s off
f 31/122/385 16/72/386 107/111/387 106/110/388
f 16/72/389 85/71/390 108/112/391 107/111/392
f 85/71/393 25/84/394 103/107/395 108/112/396
s 1
f 112/30/31 110/29/30 119/115/397 120/98/398
s 2
f 115/89/155 114/88/154 125/123/399 121/93/400
s 3
f 115/89/401 116/116/402 96/117/403 90/27/404
s 4
f 112/30/405 111/118/406 59/99/407 58/31/408
s 5
f 114/88/344 113/113/343 124/124/409 93/125/410 125/123/411
s 6
f 116/116/349 110/29/348 57/28/412 96/117/413
s 7
f 117/119/378 111/118/377 123/97/414 3/96/415
s 8
f 117/119/384 109/121/383 31/122/416 106/110/417 105/109/418
s 3
f 121/93/160 122/92/159 116/116/402 115/89/401
s 4
f 120/98/168 123/97/167 111/118/406 112/30/405
s 1
f 120/98/398 119/115/397 12/114/419 32/95/420
s 2
f 121/93/400 125/123/399 93/125/421 94/90/422
