# This file uses centimeters as units for non-parametric coordinates.

mtllib Igloo.mtl
g default
v 4.240742 0.000000 -4.240742
v 0.000000 0.000000 -5.997315
v -4.240742 -0.000000 -4.240742
v -5.997315 0.000000 0.000000
v -4.240742 -0.000000 4.240742
v 0.000000 0.000000 5.997315
v 4.240743 -0.000000 4.240743
v 3.917935 1.762925 -3.917935
v 0.000000 1.762925 -5.540796
v -3.917935 1.762925 -3.917935
v -5.540796 1.762925 0.000000
v -3.917935 1.762925 3.917935
v 0.000000 1.762925 5.540797
v 3.917935 1.762925 3.917935
v 2.998658 4.240743 -2.998658
v 0.000000 4.240743 -4.240742
v -2.998658 4.240743 -2.998658
v -4.240742 4.240743 0.000000
v -2.998658 4.240743 2.998658
v 0.000000 4.240743 4.240742
v 2.998658 4.240743 2.998658
v 4.240743 4.240743 -0.000000
v 1.622862 5.540798 -1.622862
v 0.000000 5.540798 -2.295073
v -1.622862 5.540798 -1.622862
v -2.295073 5.540798 -0.000000
v -1.622862 5.540798 1.622862
v 0.000000 5.540798 2.295073
v 1.622862 5.540798 1.622862
v 2.295074 5.540798 -0.000000
v 0.000000 5.997316 0.000000
v 3.794357 4.240743 -1.077670
v 2.053491 5.540798 -0.583231
v 3.760042 4.240743 1.160514
v 2.034921 5.540798 0.628065
v 3.537688 3.099874 -3.537688
v 0.000000 3.099874 -5.003046
v -3.537688 3.099874 -3.537688
v -5.003046 3.099874 0.000000
v -3.537688 3.099874 3.537688
v -0.000000 3.099874 5.003046
v 3.537688 3.099874 3.537688
v 5.373126 0.000000 2.222806
v 5.116687 1.765249 1.901021
v 4.846195 3.644408 0.069312
v 4.920660 3.127082 -1.259311
v 5.107169 1.831383 -1.829214
v 5.366395 -0.000000 -2.198244
v 4.927392 3.080317 1.378365
v 3.719626 0.000000 -3.719626
v 0.000000 0.000000 -5.260346
v -3.719626 -0.000000 -3.719626
v -5.260346 0.000000 0.000000
v -3.719626 -0.000000 3.719626
v 0.000000 0.000000 5.260346
v 3.719627 -0.000000 3.719627
v 3.436487 2.013047 -3.436487
v 0.000000 2.013047 -4.859926
v -3.436487 2.013047 -3.436487
v -4.859926 2.013047 0.000000
v -3.436487 2.013047 3.436487
v 0.000000 2.013047 4.859926
v 3.436487 2.013047 3.436487
v 2.630173 3.719627 -2.630173
v 0.000000 3.719627 -3.719626
v -2.630173 3.719627 -2.630173
v -3.719626 3.719627 0.000000
v -2.630173 3.719627 2.630173
v 0.000000 3.719627 3.719626
v 2.630173 3.719627 2.630173
v 3.719627 3.719627 -0.000000
v 1.423440 4.859927 -1.423440
v 0.000000 4.859927 -2.013047
v -1.423440 4.859927 -1.423440
v -2.013047 4.859927 -0.000000
v -1.423440 4.859927 1.423440
v 0.000000 4.859927 2.013047
v 1.423440 4.859927 1.423440
v 2.013047 4.859927 -0.000000
v 0.000000 5.260346 0.000000
v 3.328094 3.719627 -0.945242
v 1.801152 4.859927 -0.511562
v 3.297996 3.719627 1.017906
v 1.784863 4.859927 0.550887
v 3.102966 2.718952 -3.102966
v 0.000000 2.718952 -4.388256
v -3.102966 2.718952 -3.102966
v -4.388256 2.718952 0.000000
v -3.102966 2.718952 3.102966
v -0.000000 2.718952 4.388256
v 3.102966 2.718952 3.102966
v 4.712859 0.000000 1.949661
v 4.487932 1.548329 1.667419
v 4.250679 3.196571 0.060795
v 4.315994 2.742816 -1.104563
v 4.479584 1.606337 -1.604435
v 4.706955 0.000000 -1.928117
v 4.321898 2.701798 1.208987
v 8.059757 0.000000 -2.198244
v 7.800533 1.831383 -1.829214
v 8.066488 0.000000 2.222806
v 7.810049 1.765249 1.901023
v 7.620755 3.080317 1.378365
v 7.539557 3.644408 0.069312
v 7.614022 3.127082 -1.259311
v 7.999546 -0.000000 -1.675187
v 7.801658 1.829211 -1.393478
v 8.004681 -0.000000 1.699750
v 7.808924 1.778726 1.454107
v 7.664420 2.782622 1.055121
v 7.602435 3.213236 0.055818
v 7.659281 2.818321 -0.958426
v 6.722993 -0.000000 -2.198244
v 6.463768 1.831383 -1.829214
v 6.277258 3.127082 -1.259311
v 6.202793 3.644408 0.069312
v 6.283990 3.080317 1.378365
v 6.473285 1.765249 1.901022
v 6.729724 0.000000 2.222806
vt 0.986282 0.444344
vt 0.864161 0.596027
vt 0.896999 0.435939
vt 0.802275 0.792933
vt 0.755327 0.716109
vt 0.598413 0.847362
vt 0.598658 0.757286
vt 0.396928 0.780903
vt 0.444898 0.704432
vt 0.263798 0.616225
vt 0.344905 0.574923
vt 0.233687 0.412304
vt 0.327518 0.410789
vt 0.254418 0.316140
vt 0.329704 0.317638
vt 0.859356 0.433821
vt 0.805825 0.435799
vt 0.736580 0.684060
vt 0.709857 0.638880
vt 0.599588 0.720147
vt 0.600899 0.667595
vt 0.465417 0.673444
vt 0.494607 0.629704
vt 0.378611 0.559010
vt 0.426487 0.537236
vt 0.365156 0.412000
vt 0.418981 0.418978
vt 0.394682 0.315692
vt 0.455138 0.351588
vt 0.450697 0.287935
vt 0.836424 0.331962
vt 0.775746 0.361386
vt 0.479324 0.309593
vt 0.705190 0.512523
vt 0.712768 0.446255
vt 0.664332 0.561148
vt 0.604977 0.577340
vt 0.547254 0.556254
vt 0.510975 0.504620
vt 0.509613 0.439288
vt 0.534413 0.406951
vt 0.691077 0.409855
vt 0.549632 0.385194
vt 0.609510 0.477116
vt 0.899836 0.341044
vt 0.976995 0.347823
vt 0.028471 0.789078
vt 0.064706 0.787272
vt 0.042517 0.868745
vt 0.116980 0.903030
vt 0.096639 0.933245
vt 0.179571 0.922458
vt 0.178069 0.958867
vt 0.242656 0.903826
vt 0.260687 0.935584
vt 0.285370 0.853255
vt 0.317418 0.871386
vt 0.295307 0.787224
vt 0.333204 0.789499
vt 0.296074 0.749536
vt 0.326529 0.750264
vt 0.079957 0.787086
vt 0.101557 0.788839
vt 0.107588 0.836544
vt 0.136731 0.872625
vt 0.125127 0.890410
vt 0.180259 0.886168
vt 0.179854 0.907431
vt 0.223892 0.872741
vt 0.234913 0.890937
vt 0.253066 0.836576
vt 0.272029 0.846226
vt 0.258196 0.788913
vt 0.280074 0.787046
vt 0.244777 0.761035
vt 0.269846 0.747598
vt 0.112061 0.733230
vt 0.122781 0.742773
vt 0.115039 0.759299
vt 0.091040 0.746327
vt 0.138980 0.794721
vt 0.156512 0.842018
vt 0.180214 0.849617
vt 0.203918 0.842120
vt 0.219497 0.821896
vt 0.221206 0.795515
vt 0.211756 0.782006
vt 0.205991 0.772943
vt 0.148395 0.780396
vt 0.180162 0.809030
vt 0.065249 0.748868
vt 0.033944 0.750232
vt 0.473677 0.252555
vt 0.403354 0.275185
vt 0.403354 0.040052
vt 0.473677 0.017422
vt 0.082646 0.274354
vt 0.015881 0.251967
vt 0.015881 0.016834
vt 0.082646 0.039221
vt 0.241610 0.297968
vt 0.161075 0.290880
vt 0.161075 0.055747
vt 0.241610 0.062836
vt 0.323011 0.291468
vt 0.323011 0.056335
vt 0.182502 0.573773
vt 0.217202 0.566630
vt 0.016683 0.566445
vt 0.049912 0.573510
vt 0.082336 0.578726
vt 0.115632 0.580963
vt 0.149286 0.578911
vt 0.188268 0.693676
vt 0.214280 0.685469
vt 0.019572 0.685256
vt 0.044308 0.693374
vt 0.077713 0.699367
vt 0.115465 0.701938
vt 0.153847 0.699580
vt 0.075127 0.852559
vt 0.088491 0.845769
vt 0.140864 0.821639
vt 0.785743 0.552948
vt 0.831898 0.577805
vt 0.942929 0.639544
vt 0.247698 0.735388
vt 0.235744 0.743634
vt 0.153478 0.771714
vt 0.785938 0.297334
vt 0.758425 0.319734
vt 0.679470 0.387863
vt 0.473677 0.134122
vt 0.403354 0.156753
vt 0.323011 0.173035
vt 0.241610 0.179536
vt 0.161075 0.172448
vt 0.082646 0.155922
vt 0.015881 0.133535
vt 0.855336 0.010324
vt 0.829681 0.164775
vt 0.799388 0.164592
vt 0.818973 0.010324
vt 0.570353 0.159198
vt 0.547982 0.010324
vt 0.584345 0.010324
vt 0.601422 0.160334
vt 0.697694 0.317678
vt 0.606688 0.270105
vt 0.629160 0.244999
vt 0.698632 0.281315
vt 0.790061 0.274049
vt 0.769143 0.248009
vn 0.372180 0.232677 -0.898523
vn 0.372180 0.232677 -0.898523
vn 0.372180 0.232677 -0.898523
vn 0.372180 0.232677 -0.898523
vn -0.372180 0.232677 -0.898523
vn -0.372180 0.232677 -0.898523
vn -0.372180 0.232677 -0.898523
vn -0.372180 0.232677 -0.898523
vn -0.898523 0.232677 -0.372180
vn -0.898523 0.232677 -0.372180
vn -0.898523 0.232677 -0.372180
vn -0.898523 0.232677 -0.372180
vn -0.898523 0.232677 0.372180
vn -0.898523 0.232677 0.372180
vn -0.898523 0.232677 0.372180
vn -0.898523 0.232677 0.372180
vn -0.372180 0.232677 0.898523
vn -0.372180 0.232677 0.898523
vn -0.372180 0.232677 0.898523
vn -0.372180 0.232677 0.898523
vn 0.372180 0.232677 0.898523
vn 0.372180 0.232677 0.898523
vn 0.372180 0.232677 0.898523
vn 0.372180 0.232677 0.898523
vn 0.843126 0.227441 0.487247
vn 0.843126 0.227441 0.487247
vn 0.822988 0.284417 0.491730
vn 0.826192 0.275961 0.491174
vn 0.347270 0.420138 -0.838384
vn 0.347270 0.420138 -0.838384
vn 0.325634 0.525289 -0.786151
vn 0.325634 0.525289 -0.786151
vn -0.347270 0.420138 -0.838384
vn -0.347270 0.420138 -0.838384
vn -0.325634 0.525289 -0.786151
vn -0.325634 0.525289 -0.786151
vn -0.838384 0.420138 -0.347270
vn -0.838384 0.420138 -0.347270
vn -0.786151 0.525289 -0.325634
vn -0.786151 0.525289 -0.325634
vn -0.838384 0.420138 0.347270
vn -0.838384 0.420138 0.347270
vn -0.786151 0.525289 0.325634
vn -0.786151 0.525289 0.325634
vn -0.347270 0.420138 0.838384
vn -0.347270 0.420138 0.838384
vn -0.325634 0.525289 0.786151
vn -0.325634 0.525289 0.786151
vn 0.347270 0.420138 0.838384
vn 0.347270 0.420138 0.838384
vn 0.325634 0.525289 0.786151
vn 0.325634 0.525289 0.786151
vn 0.757899 0.480505 0.441253
vn 0.743454 0.526461 0.412450
vn 0.678628 0.651680 0.338787
vn 0.685892 0.628959 0.366010
vn 0.686697 0.726425 0.027464
vn 0.748016 0.528397 -0.401583
vn 0.686657 0.645588 -0.334243
vn 0.687554 0.726128 0.002772
vn 0.224263 0.810291 -0.541419
vn 0.224263 0.810291 -0.541419
vn 0.224263 0.810291 -0.541419
vn 0.224263 0.810291 -0.541419
vn -0.224263 0.810291 -0.541419
vn -0.224263 0.810291 -0.541419
vn -0.224263 0.810291 -0.541419
vn -0.224263 0.810291 -0.541419
vn -0.541419 0.810291 -0.224263
vn -0.541419 0.810291 -0.224263
vn -0.541419 0.810291 -0.224263
vn -0.541419 0.810291 -0.224263
vn -0.541419 0.810291 0.224263
vn -0.541419 0.810291 0.224263
vn -0.541419 0.810291 0.224263
vn -0.541419 0.810291 0.224263
vn -0.224263 0.810291 0.541419
vn -0.224263 0.810291 0.541419
vn -0.224263 0.810291 0.541419
vn -0.224263 0.810291 0.541419
vn 0.224263 0.810291 0.541419
vn 0.224263 0.810291 0.541419
vn 0.224263 0.810291 0.541419
vn 0.224263 0.810291 0.541419
vn 0.541419 0.810291 0.224263
vn 0.541419 0.810291 0.224263
vn 0.541419 0.810291 0.224263
vn 0.541419 0.810291 0.224263
vn 0.541419 0.810291 -0.224263
vn 0.541419 0.810291 -0.224263
vn 0.541419 0.810291 -0.224263
vn 0.541419 0.810291 -0.224263
vn 0.080546 0.977599 -0.194456
vn 0.080546 0.977599 -0.194456
vn 0.080546 0.977599 -0.194456
vn -0.080546 0.977599 -0.194456
vn -0.080546 0.977599 -0.194456
vn -0.080546 0.977599 -0.194456
vn -0.194456 0.977599 -0.080547
vn -0.194456 0.977599 -0.080547
vn -0.194456 0.977599 -0.080547
vn -0.194456 0.977599 0.080547
vn -0.194456 0.977599 0.080547
vn -0.194456 0.977599 0.080547
vn -0.080546 0.977599 0.194456
vn -0.080546 0.977599 0.194456
vn -0.080546 0.977599 0.194456
vn 0.080546 0.977599 0.194456
vn 0.080546 0.977599 0.194456
vn 0.080546 0.977599 0.194456
vn 0.194456 0.977599 0.080547
vn 0.194456 0.977599 0.080547
vn 0.194456 0.977599 0.080547
vn 0.194456 0.977599 0.080547
vn 0.194456 0.977599 -0.080547
vn 0.194456 0.977599 -0.080547
vn 0.194456 0.977599 -0.080547
vn 0.194456 0.977599 -0.080547
vn 0.827109 0.290530 -0.481127
vn 0.847495 0.229374 -0.478686
vn 0.847495 0.229374 -0.478686
vn 0.831408 0.278548 -0.480804
vn 0.763069 0.479567 -0.433291
vn 0.690590 0.625936 -0.362340
vn 0.541419 0.810291 -0.224263
vn 0.541419 0.810291 -0.224263
vn 0.541419 0.810291 0.224263
vn 0.541419 0.810291 0.224263
vn 0.358716 0.348332 -0.866018
vn 0.358716 0.348332 -0.866018
vn -0.358716 0.348332 -0.866018
vn -0.358716 0.348332 -0.866018
vn -0.866018 0.348332 -0.358716
vn -0.866018 0.348332 -0.358716
vn -0.866018 0.348332 0.358716
vn -0.866018 0.348332 0.358716
vn -0.358716 0.348332 0.866018
vn -0.358716 0.348332 0.866018
vn 0.358716 0.348332 0.866018
vn 0.358716 0.348332 0.866018
vn -0.376381 -0.180744 0.908663
vn -0.376381 -0.180744 0.908663
vn -0.376381 -0.180744 0.908663
vn -0.376381 -0.180744 0.908663
vn 0.376381 -0.180744 0.908663
vn 0.376381 -0.180744 0.908663
vn 0.376381 -0.180744 0.908663
vn 0.376381 -0.180744 0.908663
vn 0.908663 -0.180744 0.376381
vn 0.908663 -0.180744 0.376381
vn 0.908663 -0.180744 0.376381
vn 0.908663 -0.180744 0.376381
vn 0.908663 -0.180744 -0.376381
vn 0.908663 -0.180744 -0.376381
vn 0.908663 -0.180744 -0.376381
vn 0.908663 -0.180744 -0.376381
vn 0.376381 -0.180744 -0.908663
vn 0.376381 -0.180744 -0.908663
vn 0.376381 -0.180744 -0.908663
vn 0.376381 -0.180744 -0.908663
vn -0.376381 -0.180745 -0.908663
vn -0.376381 -0.180745 -0.908663
vn -0.376381 -0.180745 -0.908663
vn -0.376380 -0.180745 -0.908663
vn -0.859841 -0.197415 -0.470851
vn -0.840277 -0.283598 -0.462068
vn -0.842953 -0.273457 -0.463304
vn -0.859841 -0.197415 -0.470851
vn -0.325634 -0.525289 0.786151
vn -0.325634 -0.525289 0.786151
vn -0.325634 -0.525289 0.786151
vn -0.325634 -0.525289 0.786151
vn 0.325634 -0.525289 0.786151
vn 0.325634 -0.525289 0.786151
vn 0.325634 -0.525289 0.786151
vn 0.325634 -0.525289 0.786151
vn 0.786151 -0.525289 0.325634
vn 0.786151 -0.525289 0.325634
vn 0.786151 -0.525289 0.325634
vn 0.786151 -0.525289 0.325634
vn 0.786151 -0.525289 -0.325634
vn 0.786151 -0.525289 -0.325634
vn 0.786151 -0.525289 -0.325634
vn 0.786151 -0.525289 -0.325634
vn 0.325634 -0.525289 -0.786151
vn 0.325634 -0.525289 -0.786151
vn 0.325634 -0.525289 -0.786151
vn 0.325634 -0.525289 -0.786151
vn -0.325634 -0.525289 -0.786151
vn -0.325634 -0.525289 -0.786151
vn -0.325634 -0.525289 -0.786151
vn -0.325634 -0.525289 -0.786151
vn -0.749812 -0.520776 -0.408135
vn -0.685892 -0.628958 -0.366010
vn -0.678628 -0.651680 -0.338787
vn -0.733735 -0.561243 -0.382936
vn -0.686697 -0.726425 -0.027464
vn -0.687554 -0.726128 -0.002772
vn -0.686657 -0.645588 0.334243
vn -0.737600 -0.562466 0.373601
vn -0.224263 -0.810291 0.541419
vn -0.224263 -0.810291 0.541419
vn -0.224263 -0.810291 0.541419
vn -0.224263 -0.810291 0.541419
vn 0.224263 -0.810291 0.541419
vn 0.224263 -0.810291 0.541419
vn 0.224263 -0.810291 0.541419
vn 0.224263 -0.810291 0.541419
vn 0.541419 -0.810291 0.224263
vn 0.541419 -0.810291 0.224263
vn 0.541419 -0.810291 0.224263
vn 0.541419 -0.810291 0.224263
vn 0.541419 -0.810291 -0.224263
vn 0.541419 -0.810291 -0.224263
vn 0.541419 -0.810291 -0.224263
vn 0.541419 -0.810291 -0.224263
vn 0.224263 -0.810291 -0.541419
vn 0.224263 -0.810291 -0.541419
vn 0.224263 -0.810291 -0.541419
vn 0.224263 -0.810291 -0.541419
vn -0.224263 -0.810291 -0.541419
vn -0.224263 -0.810291 -0.541419
vn -0.224263 -0.810291 -0.541419
vn -0.224263 -0.810291 -0.541419
vn -0.541419 -0.810291 -0.224263
vn -0.541419 -0.810291 -0.224263
vn -0.541419 -0.810291 -0.224263
vn -0.541419 -0.810291 -0.224263
vn -0.541419 -0.810291 0.224263
vn -0.541419 -0.810291 0.224263
vn -0.541419 -0.810291 0.224263
vn -0.541419 -0.810291 0.224263
vn -0.080546 -0.977599 0.194456
vn -0.080546 -0.977599 0.194456
vn -0.080546 -0.977599 0.194456
vn 0.080546 -0.977599 0.194457
vn 0.080546 -0.977599 0.194457
vn 0.080546 -0.977599 0.194457
vn 0.194456 -0.977599 0.080547
vn 0.194456 -0.977599 0.080547
vn 0.194456 -0.977599 0.080547
vn 0.194456 -0.977599 -0.080547
vn 0.194456 -0.977599 -0.080547
vn 0.194456 -0.977599 -0.080547
vn 0.080546 -0.977599 -0.194457
vn 0.080546 -0.977599 -0.194457
vn 0.080546 -0.977599 -0.194457
vn -0.080546 -0.977599 -0.194456
vn -0.080546 -0.977599 -0.194456
vn -0.080546 -0.977599 -0.194456
vn -0.194456 -0.977599 -0.080547
vn -0.194456 -0.977599 -0.080547
vn -0.194456 -0.977599 -0.080547
vn -0.194456 -0.977599 -0.080547
vn -0.194456 -0.977599 0.080547
vn -0.194456 -0.977599 0.080547
vn -0.194456 -0.977599 0.080547
vn -0.194456 -0.977599 0.080547
vn -0.846038 -0.280833 0.453157
vn -0.844879 -0.285201 0.452592
vn -0.864243 -0.199341 0.461896
vn -0.864243 -0.199341 0.461896
vn -0.690590 -0.625936 0.362340
vn -0.753815 -0.520615 0.400903
vn -0.541419 -0.810291 0.224263
vn -0.541419 -0.810291 0.224263
vn -0.541419 -0.810291 -0.224263
vn -0.541419 -0.810291 -0.224263
vn -0.325634 -0.525289 0.786151
vn -0.325634 -0.525289 0.786151
vn 0.325634 -0.525289 0.786151
vn 0.325634 -0.525289 0.786151
vn 0.786151 -0.525289 0.325634
vn 0.786151 -0.525289 0.325634
vn 0.786151 -0.525289 -0.325634
vn 0.786151 -0.525289 -0.325634
vn 0.325634 -0.525289 -0.786151
vn 0.325634 -0.525289 -0.786151
vn -0.325634 -0.525289 -0.786151
vn -0.325634 -0.525289 -0.786151
vn -0.000000 0.197533 -0.980296
vn -0.000000 0.197533 -0.980296
vn -0.000000 0.197533 -0.980296
vn -0.000000 0.197533 -0.980296
vn -0.000000 0.179333 0.983788
vn -0.000000 0.179333 0.983788
vn -0.000000 0.179333 0.983789
vn -0.000000 0.179333 0.983788
vn 0.000000 0.918364 0.395737
vn 0.000000 0.918364 0.395737
vn 0.000000 0.918364 0.395737
vn 0.000000 0.918364 0.395737
vn -0.000000 0.369336 0.929296
vn -0.000000 0.369336 0.929296
vn -0.000000 0.369336 0.929296
vn -0.000000 0.369336 0.929296
vn 0.000000 0.402618 -0.915368
vn 0.000000 0.402618 -0.915368
vn 0.000000 0.402618 -0.915368
vn 0.000000 0.402618 -0.915368
vn 0.000000 0.931853 -0.362835
vn 0.000000 0.931853 -0.362835
vn 0.000000 0.931853 -0.362835
vn 0.000000 0.931853 -0.362835
vn 0.991706 0.112928 0.061371
vn 0.991706 0.112928 0.061371
vn 0.991706 0.112928 0.061371
vn 0.991706 0.112928 0.061371
vn 0.991217 0.116437 -0.062694
vn 0.991217 0.116437 -0.062694
vn 0.991217 0.116437 -0.062694
vn 0.991217 0.116437 -0.062694
vn 0.989536 0.144282 0.000794
vn 0.989536 0.144282 0.000794
vn 0.989536 0.144282 0.000794
vn 0.989536 0.144282 0.000794
vn 0.989694 0.143185 0.001825
vn 0.989694 0.143185 0.001825
vn 0.989694 0.143185 0.001825
vn 0.989694 0.143185 0.001825
vn 0.989682 0.143271 -0.001842
vn 0.989682 0.143271 -0.001842
vn 0.989682 0.143271 -0.001842
vn 0.989682 0.143271 -0.001842
vn 0.989530 0.144328 -0.000737
vn 0.989530 0.144328 -0.000737
vn 0.989530 0.144329 -0.000737
vn 0.989530 0.144329 -0.000737
vn -0.062745 -0.180726 0.981530
vn -0.062745 -0.180726 0.981530
vn -0.062745 -0.180726 0.981530
vn -0.062745 -0.180726 0.981530
vn -0.063236 -0.164185 -0.984401
vn -0.063236 -0.164185 -0.984401
vn -0.063236 -0.164185 -0.984401
vn -0.063236 -0.164185 -0.984401
vn 0.003978 -0.918267 -0.395941
vn 0.003978 -0.918267 -0.395941
vn 0.003978 -0.918267 -0.395941
vn 0.003978 -0.918267 -0.395941
vn -0.033650 -0.373307 -0.927098
vn -0.033650 -0.373307 -0.927098
vn -0.033650 -0.373307 -0.927097
vn -0.033650 -0.373307 -0.927098
vn -0.030749 -0.406133 0.913297
vn -0.030749 -0.406133 0.913297
vn -0.030749 -0.406133 0.913297
vn -0.030749 -0.406133 0.913297
vn 0.005172 -0.931743 0.363082
vn 0.005172 -0.931743 0.363082
vn 0.005172 -0.931743 0.363082
vn 0.005172 -0.931743 0.363082
vn -0.000000 0.197533 -0.980296
vn -0.000000 0.197533 -0.980296
vn 0.000000 0.402618 -0.915368
vn 0.000000 0.402618 -0.915368
vn 0.000000 0.931853 -0.362835
vn 0.000000 0.931853 -0.362835
vn 0.000000 0.918364 0.395736
vn 0.000000 0.918364 0.395736
vn -0.000000 0.369336 0.929296
vn -0.000000 0.369336 0.929296
vn -0.000000 0.179333 0.983788
vn -0.000000 0.179333 0.983788
s off
g polySurface1
usemtl lambert2SG
f 1/1/1 2/126/2 9/2/3 8/3/4
f 2/126/5 3/4/6 10/5/7 9/2/8
f 3/4/9 4/6/10 11/7/11 10/5/12
f 4/6/13 5/8/14 12/9/15 11/7/16
f 5/8/17 6/10/18 13/11/19 12/9/20
f 6/10/21 7/12/22 14/13/23 13/11/24
s 1
f 7/12/25 43/14/26 44/15/27 14/13/28
s 2
f 36/16/29 37/125/30 16/124/31 15/17/32
s 3
f 37/125/33 38/18/34 17/19/35 16/124/36
s 4
f 38/18/37 39/20/38 18/21/39 17/19/40
s 5
f 39/20/41 40/22/42 19/23/43 18/21/44
s 6
f 40/22/45 41/24/46 20/25/47 19/23/48
s 7
f 41/24/49 42/26/50 21/27/51 20/25/52
s 1
f 42/26/53 49/28/54 34/29/55 21/27/56
f 45/130/57 46/31/58 32/32/59 22/131/60
s off
f 15/17/61 16/124/62 24/34/63 23/35/64
f 16/124/65 17/19/66 25/36/67 24/34/68
f 17/19/69 18/21/70 26/37/71 25/36/72
f 18/21/73 19/23/74 27/38/75 26/37/76
f 19/23/77 20/25/78 28/39/79 27/38/80
f 20/25/81 21/27/82 29/40/83 28/39/84
s 9
f 21/27/85 34/29/86 35/41/87 29/40/88
s 10
f 22/131/89 32/32/90 33/42/91 30/132/92
s off
f 23/35/93 24/34/94 31/44/95
f 24/34/96 25/36/97 31/44/98
f 25/36/99 26/37/100 31/44/101
f 26/37/102 27/38/103 31/44/104
f 27/38/105 28/39/106 31/44/107
f 28/39/108 29/40/109 31/44/110
f 29/40/111 35/41/112 30/43/113 31/44/114
f 30/132/115 33/42/116 23/35/117 31/44/118
s 1
f 47/45/119 48/46/120 1/1/121 8/3/122
f 32/32/59 46/31/58 36/16/123 15/17/124
s 10
f 33/42/91 32/32/90 15/17/125 23/35/126
s 1
f 34/29/55 49/28/54 45/30/57 22/33/60
s 9
f 35/41/87 34/29/86 22/33/127 30/43/128
s 2
f 8/3/129 9/2/130 37/125/30 36/16/29
s 3
f 9/2/131 10/5/132 38/18/34 37/125/33
s 4
f 10/5/133 11/7/134 39/20/38 38/18/37
s 5
f 11/7/135 12/9/136 40/22/42 39/20/41
s 6
f 12/9/137 13/11/138 41/24/46 40/22/45
s 7
f 13/11/139 14/13/140 42/26/50 41/24/49
s 1
f 14/13/28 44/15/27 49/28/54 42/26/53
f 36/16/123 46/31/58 47/45/119 8/3/122
s off
f 50/47/141 57/48/142 58/121/143 51/49/144
f 51/49/145 58/121/146 59/50/147 52/51/148
f 52/51/149 59/50/150 60/52/151 53/53/152
f 53/53/153 60/52/154 61/54/155 54/55/156
f 54/55/157 61/54/158 62/56/159 55/57/160
f 55/57/161 62/56/162 63/58/163 56/59/164
s 12
f 56/59/165 63/58/166 93/60/167 92/61/168
s 13
f 85/62/169 64/63/170 65/64/171 86/122/172
s 14
f 86/122/173 65/64/174 66/65/175 87/66/176
s 15
f 87/66/177 66/65/178 67/67/179 88/68/180
s 16
f 88/68/181 67/67/182 68/69/183 89/70/184
s 17
f 89/70/185 68/69/186 69/71/187 90/72/188
s 18
f 90/72/189 69/71/190 70/73/191 91/74/192
s 12
f 91/74/193 70/73/194 83/75/195 98/76/196
f 94/77/197 71/78/198 81/79/199 95/80/200
s off
f 64/63/201 72/81/202 73/123/203 65/64/204
f 65/64/205 73/123/206 74/82/207 66/65/208
f 66/65/209 74/82/210 75/83/211 67/67/212
f 67/67/213 75/83/214 76/84/215 68/69/216
f 68/69/217 76/84/218 77/85/219 69/71/220
f 69/71/221 77/85/222 78/86/223 70/73/224
s 20
f 70/73/225 78/86/226 84/87/227 83/75/228
s 21
f 71/78/229 79/129/230 82/89/231 81/79/232
s off
f 72/81/233 80/90/234 73/123/235
f 73/123/236 80/90/237 74/82/238
f 74/82/239 80/90/240 75/83/241
f 75/83/242 80/90/243 76/84/244
f 76/84/245 80/90/246 77/85/247
f 77/85/248 80/90/249 78/86/250
f 78/86/251 80/90/252 79/88/253 84/87/254
f 79/129/255 80/90/256 72/81/257 82/89/258
s 12
f 96/91/259 57/48/260 50/47/261 97/92/262
f 81/79/199 64/63/263 85/62/264 95/80/200
s 21
f 82/89/231 72/81/265 64/63/266 81/79/232
s 12
f 83/75/195 71/128/198 94/127/197 98/76/196
s 20
f 84/87/227 79/88/267 71/128/268 83/75/228
s 13
f 57/48/269 85/62/169 86/122/172 58/121/270
s 14
f 58/121/271 86/122/173 87/66/176 59/50/272
s 15
f 59/50/273 87/66/177 88/68/180 60/52/274
s 16
f 60/52/275 88/68/181 89/70/184 61/54/276
s 17
f 61/54/277 89/70/185 90/72/188 62/56/278
s 18
f 62/56/279 90/72/189 91/74/192 63/58/280
s 12
f 63/58/166 91/74/193 98/76/196 93/60/167
f 85/62/264 57/48/260 96/91/259 95/80/200
s 23
f 113/133/281 114/134/282 100/95/283 99/96/284
s 24
f 118/138/285 119/139/286 101/99/287 102/100/288
s 25
f 116/136/289 117/137/290 103/103/291 104/104/292
s 26
f 117/137/293 118/138/294 102/100/295 103/103/296
s 27
f 114/134/297 115/135/298 105/106/299 100/95/300
s 28
f 115/135/301 116/136/302 104/104/303 105/106/304
s off
f 99/140/305 100/141/306 107/142/307 106/143/308
f 102/144/309 101/145/310 108/146/311 109/147/312
f 104/148/313 103/149/314 110/150/315 111/151/316
f 103/149/317 102/144/318 109/147/319 110/150/320
f 100/141/321 105/152/322 112/153/323 107/142/324
f 105/152/325 104/148/326 111/151/327 112/153/328
f 106/108/329 107/107/330 96/114/331 97/115/332
f 109/110/333 108/109/334 92/116/335 93/117/336
f 111/112/337 110/111/338 98/118/339 94/119/340
f 110/111/341 109/110/342 93/117/343 98/118/344
f 107/107/345 112/113/346 95/120/347 96/114/348
f 112/113/349 111/112/350 94/119/351 95/120/352
s 23
f 48/93/353 47/94/354 114/134/282 113/133/281
s 27
f 47/94/355 46/105/356 115/135/298 114/134/297
s 28
f 46/105/357 45/101/358 116/136/302 115/135/301
s 25
f 45/101/359 49/102/360 117/137/290 116/136/289
s 26
f 49/102/361 44/97/362 118/138/294 117/137/293
s 24
f 44/97/363 43/98/364 119/139/286 118/138/285
